<mxfile host="app.diagrams.net" modified="2022-04-07T04:20:38.864Z" agent="5.0 (Windows)" etag="0o9oprYg0D0tzVHmlXrS" version="17.3.0" type="github">
  <diagram id="e6pnuvE_iCsAUauL3eBb" name="Page-1">
    <mxGraphModel dx="1209" dy="666" grid="1" gridSize="10" guides="1" tooltips="1" connect="1" arrows="1" fold="1" page="1" pageScale="1" pageWidth="413" pageHeight="583" math="0" shadow="0">
      <root>
        <mxCell id="0" />
        <mxCell id="1" parent="0" />
        <mxCell id="beFujyjVCRjYdpPx3j6L-1" value="" style="rounded=1;absoluteArcSize=1;html=1;arcSize=10;" parent="1" vertex="1">
          <mxGeometry x="230" y="88" width="560" height="520" as="geometry" />
        </mxCell>
        <mxCell id="beFujyjVCRjYdpPx3j6L-2" value="main" style="html=1;shape=mxgraph.er.anchor;whiteSpace=wrap;" parent="beFujyjVCRjYdpPx3j6L-1" vertex="1">
          <mxGeometry width="280" height="520" as="geometry" />
        </mxCell>
        <mxCell id="beFujyjVCRjYdpPx3j6L-3" value="" style="rounded=1;absoluteArcSize=1;html=1;arcSize=10;whiteSpace=wrap;points=[];strokeColor=#666666;fillColor=#f5f5f5;fontColor=#333333;" parent="beFujyjVCRjYdpPx3j6L-1" vertex="1">
          <mxGeometry x="297" y="60" width="252" height="434" as="geometry" />
        </mxCell>
        <mxCell id="beFujyjVCRjYdpPx3j6L-4" value="" style="rounded=1;absoluteArcSize=1;html=1;arcSize=10;whiteSpace=wrap;points=[];strokeColor=#666666;fillColor=#f5f5f5;fontColor=#333333;" parent="beFujyjVCRjYdpPx3j6L-1" vertex="1">
          <mxGeometry x="11" y="60" width="252" height="434" as="geometry" />
        </mxCell>
        <mxCell id="beFujyjVCRjYdpPx3j6L-5" value="&lt;h2 style=&quot;font-size: 29px&quot;&gt;&lt;font style=&quot;font-size: 29px&quot;&gt;&lt;b&gt;ZYNQ&lt;/b&gt;&lt;/font&gt;&lt;/h2&gt;" style="text;html=1;strokeColor=none;fillColor=none;align=center;verticalAlign=middle;whiteSpace=wrap;rounded=0;" parent="beFujyjVCRjYdpPx3j6L-1" vertex="1">
          <mxGeometry x="11" y="17" width="89" height="30" as="geometry" />
        </mxCell>
        <mxCell id="beFujyjVCRjYdpPx3j6L-6" value="&lt;b&gt;&lt;font style=&quot;font-size: 16px&quot;&gt;&lt;span class=&quot;markedContent&quot;&gt;&lt;span style=&quot;left: 1054.58px ; top: 286.237px ; font-family: sans-serif ; transform: scalex(0.929872)&quot; dir=&quot;ltr&quot;&gt;ARM Cortex-A9 MPCore&lt;/span&gt;&lt;/span&gt;&lt;/font&gt;&lt;/b&gt;" style="text;html=1;strokeColor=none;fillColor=none;align=center;verticalAlign=middle;whiteSpace=wrap;rounded=0;fontSize=29;strokeWidth=3;" parent="beFujyjVCRjYdpPx3j6L-1" vertex="1">
          <mxGeometry x="29.75" y="60" width="214.5" height="30" as="geometry" />
        </mxCell>
        <mxCell id="beFujyjVCRjYdpPx3j6L-7" value="&lt;font style=&quot;font-size: 19px&quot;&gt;&lt;b&gt;&lt;font style=&quot;font-size: 19px&quot;&gt;Event Receiver&lt;/font&gt;&lt;/b&gt;&lt;/font&gt;" style="text;html=1;strokeColor=none;fillColor=none;align=center;verticalAlign=middle;whiteSpace=wrap;rounded=0;fontSize=29;" parent="beFujyjVCRjYdpPx3j6L-1" vertex="1">
          <mxGeometry x="336.5" y="64.75" width="173" height="20.5" as="geometry" />
        </mxCell>
        <mxCell id="beFujyjVCRjYdpPx3j6L-8" value="" style="rounded=1;absoluteArcSize=1;html=1;arcSize=10;whiteSpace=wrap;points=[];strokeColor=#6c8ebf;fillColor=#dae8fc;" parent="beFujyjVCRjYdpPx3j6L-1" vertex="1">
          <mxGeometry x="26" y="100" width="222" height="380" as="geometry" />
        </mxCell>
        <mxCell id="beFujyjVCRjYdpPx3j6L-9" value="&lt;font size=&quot;1&quot;&gt;&lt;b&gt;&lt;font style=&quot;font-size: 16px&quot;&gt;Linux&lt;/font&gt;&lt;/b&gt;&lt;/font&gt;" style="text;html=1;strokeColor=none;fillColor=none;align=center;verticalAlign=middle;whiteSpace=wrap;rounded=0;fontSize=29;strokeWidth=3;" parent="beFujyjVCRjYdpPx3j6L-1" vertex="1">
          <mxGeometry x="116.36999999999999" y="100" width="40.25" height="10" as="geometry" />
        </mxCell>
        <mxCell id="beFujyjVCRjYdpPx3j6L-10" value="" style="rounded=1;absoluteArcSize=1;html=1;arcSize=10;whiteSpace=wrap;points=[];strokeColor=#82b366;fillColor=#d5e8d4;" parent="beFujyjVCRjYdpPx3j6L-1" vertex="1">
          <mxGeometry x="44.02" y="130" width="185.98" height="150" as="geometry" />
        </mxCell>
        <mxCell id="beFujyjVCRjYdpPx3j6L-11" value="" style="rounded=1;absoluteArcSize=1;html=1;arcSize=10;whiteSpace=wrap;points=[];strokeColor=#82b366;fillColor=#d5e8d4;" parent="beFujyjVCRjYdpPx3j6L-1" vertex="1">
          <mxGeometry x="44.019999999999996" y="300" width="186.88" height="154" as="geometry" />
        </mxCell>
        <mxCell id="beFujyjVCRjYdpPx3j6L-12" value="&lt;font style=&quot;font-size: 16px&quot;&gt;UIO&lt;/font&gt;" style="text;html=1;strokeColor=none;fillColor=none;align=center;verticalAlign=middle;whiteSpace=wrap;rounded=0;fontSize=14;" parent="beFujyjVCRjYdpPx3j6L-1" vertex="1">
          <mxGeometry x="110" y="130" width="60" height="30" as="geometry" />
        </mxCell>
        <mxCell id="beFujyjVCRjYdpPx3j6L-13" value="&lt;font style=&quot;font-size: 14px&quot;&gt;driver&lt;/font&gt;" style="rounded=1;absoluteArcSize=1;html=1;arcSize=10;whiteSpace=wrap;points=[];strokeColor=inherit;fillColor=inherit;" parent="beFujyjVCRjYdpPx3j6L-1" vertex="1">
          <mxGeometry x="60" y="330" width="154" height="30" as="geometry" />
        </mxCell>
        <mxCell id="beFujyjVCRjYdpPx3j6L-14" value="&lt;font style=&quot;font-size: 14px&quot;&gt;register mapping&lt;/font&gt;" style="rounded=1;absoluteArcSize=1;html=1;arcSize=10;whiteSpace=wrap;points=[];strokeColor=inherit;fillColor=inherit;" parent="beFujyjVCRjYdpPx3j6L-1" vertex="1">
          <mxGeometry x="143" y="160" width="70.13" height="110" as="geometry" />
        </mxCell>
        <mxCell id="beFujyjVCRjYdpPx3j6L-15" value="&lt;pre class=&quot;tw-data-text tw-text-large tw-ta&quot; id=&quot;tw-target-text&quot; style=&quot;text-align: left ; font-size: 14px&quot; dir=&quot;ltr&quot;&gt;&lt;font style=&quot;font-size: 14px&quot; face=&quot;Helvetica&quot;&gt;&lt;span class=&quot;Y2IQFc&quot; lang=&quot;en&quot;&gt;interrupt &lt;br&gt;handling&lt;/span&gt;&lt;/font&gt;&lt;/pre&gt;" style="rounded=1;absoluteArcSize=1;html=1;arcSize=10;whiteSpace=wrap;points=[];strokeColor=inherit;fillColor=inherit;" parent="beFujyjVCRjYdpPx3j6L-1" vertex="1">
          <mxGeometry x="60.13" y="160" width="69.87" height="110" as="geometry" />
        </mxCell>
        <mxCell id="beFujyjVCRjYdpPx3j6L-16" value="&lt;font style=&quot;font-size: 14px&quot;&gt;device support&lt;/font&gt;" style="rounded=1;absoluteArcSize=1;html=1;arcSize=10;whiteSpace=wrap;points=[];strokeColor=inherit;fillColor=inherit;" parent="beFujyjVCRjYdpPx3j6L-1" vertex="1">
          <mxGeometry x="60" y="370" width="154" height="30" as="geometry" />
        </mxCell>
        <mxCell id="beFujyjVCRjYdpPx3j6L-17" value="&lt;font style=&quot;font-size: 14px&quot;&gt;record support&lt;/font&gt;" style="rounded=1;absoluteArcSize=1;html=1;arcSize=10;whiteSpace=wrap;points=[];strokeColor=inherit;fillColor=inherit;" parent="beFujyjVCRjYdpPx3j6L-1" vertex="1">
          <mxGeometry x="60.45999999999998" y="410" width="154" height="30" as="geometry" />
        </mxCell>
        <mxCell id="beFujyjVCRjYdpPx3j6L-18" value="" style="shape=flexArrow;endArrow=classic;html=1;rounded=0;fontFamily=Helvetica;fontSize=14;entryX=0.136;entryY=0.033;entryDx=0;entryDy=0;entryPerimeter=0;fillColor=#dae8fc;sketch=0;shadow=0;strokeColor=#6c8ebf;" parent="beFujyjVCRjYdpPx3j6L-1" target="beFujyjVCRjYdpPx3j6L-13" edge="1">
          <mxGeometry width="50" height="50" relative="1" as="geometry">
            <mxPoint x="81" y="270" as="sourcePoint" />
            <mxPoint x="130" y="220" as="targetPoint" />
          </mxGeometry>
        </mxCell>
        <mxCell id="beFujyjVCRjYdpPx3j6L-19" value="" style="shape=flexArrow;endArrow=classic;startArrow=classic;html=1;rounded=0;shadow=0;sketch=0;fontFamily=Helvetica;fontSize=14;fillColor=#dae8fc;exitX=0.851;exitY=0.033;exitDx=0;exitDy=0;exitPerimeter=0;strokeColor=#6c8ebf;" parent="beFujyjVCRjYdpPx3j6L-1" source="beFujyjVCRjYdpPx3j6L-13" edge="1">
          <mxGeometry width="100" height="100" relative="1" as="geometry">
            <mxPoint x="293" y="340" as="sourcePoint" />
            <mxPoint x="190" y="270" as="targetPoint" />
          </mxGeometry>
        </mxCell>
        <mxCell id="beFujyjVCRjYdpPx3j6L-20" value="&lt;font style=&quot;font-size: 16px&quot;&gt;EPICS&lt;/font&gt;" style="text;html=1;strokeColor=none;fillColor=none;align=center;verticalAlign=middle;whiteSpace=wrap;rounded=0;fontSize=14;" parent="beFujyjVCRjYdpPx3j6L-1" vertex="1">
          <mxGeometry x="110" y="300" width="60" height="30" as="geometry" />
        </mxCell>
        <mxCell id="beFujyjVCRjYdpPx3j6L-21" value="" style="rounded=1;absoluteArcSize=1;html=1;arcSize=10;whiteSpace=wrap;points=[];" parent="beFujyjVCRjYdpPx3j6L-1" vertex="1">
          <mxGeometry x="439" y="100" width="92" height="160" as="geometry" />
        </mxCell>
        <mxCell id="beFujyjVCRjYdpPx3j6L-22" value="&lt;div style=&quot;font-size: 16px&quot;&gt;&lt;font style=&quot;font-size: 16px&quot;&gt;AXI-Lite&lt;/font&gt;&lt;/div&gt;&lt;div style=&quot;font-size: 16px&quot;&gt;&lt;font style=&quot;font-size: 16px&quot;&gt;registers&lt;/font&gt;&lt;br&gt;&lt;/div&gt;" style="rounded=1;absoluteArcSize=1;html=1;arcSize=10;whiteSpace=wrap;points=[];" parent="beFujyjVCRjYdpPx3j6L-1" vertex="1">
          <mxGeometry x="315" y="100" width="93" height="160" as="geometry" />
        </mxCell>
        <mxCell id="beFujyjVCRjYdpPx3j6L-23" value="" style="shape=flexArrow;endArrow=classic;startArrow=classic;html=1;rounded=0;shadow=0;sketch=0;fontFamily=Helvetica;fontSize=16;strokeColor=#666666;fillColor=#f5f5f5;exitX=1.005;exitY=0.293;exitDx=0;exitDy=0;exitPerimeter=0;entryX=0.008;entryY=0.46;entryDx=0;entryDy=0;entryPerimeter=0;" parent="beFujyjVCRjYdpPx3j6L-1" target="beFujyjVCRjYdpPx3j6L-22" edge="1">
          <mxGeometry width="100" height="100" relative="1" as="geometry">
            <mxPoint x="230.9299000000001" y="173.95000000000005" as="sourcePoint" />
            <mxPoint x="310" y="174" as="targetPoint" />
          </mxGeometry>
        </mxCell>
        <mxCell id="beFujyjVCRjYdpPx3j6L-24" value="" style="shape=flexArrow;endArrow=classic;html=1;rounded=0;shadow=0;sketch=0;fontFamily=Helvetica;fontSize=16;strokeColor=#666666;fillColor=#f5f5f5;exitX=0;exitY=0.863;exitDx=0;exitDy=0;exitPerimeter=0;entryX=1.005;entryY=0.72;entryDx=0;entryDy=0;entryPerimeter=0;" parent="beFujyjVCRjYdpPx3j6L-1" source="beFujyjVCRjYdpPx3j6L-21" target="beFujyjVCRjYdpPx3j6L-10" edge="1">
          <mxGeometry width="50" height="50" relative="1" as="geometry">
            <mxPoint x="350" y="220" as="sourcePoint" />
            <mxPoint x="230" y="247" as="targetPoint" />
          </mxGeometry>
        </mxCell>
        <mxCell id="beFujyjVCRjYdpPx3j6L-25" value="AXI" style="text;html=1;strokeColor=none;fillColor=none;align=center;verticalAlign=middle;whiteSpace=wrap;rounded=0;fontFamily=Helvetica;fontSize=16;" parent="beFujyjVCRjYdpPx3j6L-1" vertex="1">
          <mxGeometry x="249" y="142" width="58" height="30" as="geometry" />
        </mxCell>
        <mxCell id="beFujyjVCRjYdpPx3j6L-26" value="&lt;div&gt;Fabric&lt;/div&gt;&lt;div&gt;Interrupts&lt;br&gt;&lt;/div&gt;" style="text;html=1;strokeColor=none;fillColor=none;align=center;verticalAlign=middle;whiteSpace=wrap;rounded=0;fontFamily=Helvetica;fontSize=16;" parent="beFujyjVCRjYdpPx3j6L-1" vertex="1">
          <mxGeometry x="455" y="210" width="60" height="30" as="geometry" />
        </mxCell>
        <mxCell id="beFujyjVCRjYdpPx3j6L-27" value="&lt;div&gt;Interrupt&lt;/div&gt;&lt;div&gt;Generation&lt;br&gt;&lt;/div&gt;" style="text;html=1;strokeColor=none;fillColor=none;align=center;verticalAlign=middle;whiteSpace=wrap;rounded=0;fontFamily=Helvetica;fontSize=16;" parent="beFujyjVCRjYdpPx3j6L-1" vertex="1">
          <mxGeometry x="455" y="130" width="60" height="30" as="geometry" />
        </mxCell>
        <mxCell id="beFujyjVCRjYdpPx3j6L-28" value="&lt;font style=&quot;font-size: 14px&quot;&gt;MappingRAM&lt;/font&gt;" style="rounded=1;absoluteArcSize=1;html=1;arcSize=10;whiteSpace=wrap;points=[];" parent="beFujyjVCRjYdpPx3j6L-1" vertex="1">
          <mxGeometry x="317" y="305" width="94" height="160" as="geometry" />
        </mxCell>
        <mxCell id="beFujyjVCRjYdpPx3j6L-29" value="&lt;font style=&quot;font-size: 16px&quot;&gt;Transceiver&lt;/font&gt;" style="rounded=1;absoluteArcSize=1;html=1;arcSize=10;whiteSpace=wrap;points=[];" parent="beFujyjVCRjYdpPx3j6L-1" vertex="1">
          <mxGeometry x="439" y="305" width="94" height="70" as="geometry" />
        </mxCell>
        <mxCell id="beFujyjVCRjYdpPx3j6L-30" value="" style="edgeStyle=orthogonalEdgeStyle;rounded=0;sketch=0;orthogonalLoop=1;jettySize=auto;html=1;shadow=0;fontFamily=Helvetica;fontSize=16;strokeColor=default;fillColor=default;gradientColor=none;" parent="beFujyjVCRjYdpPx3j6L-1" source="beFujyjVCRjYdpPx3j6L-31" target="beFujyjVCRjYdpPx3j6L-29" edge="1">
          <mxGeometry relative="1" as="geometry" />
        </mxCell>
        <mxCell id="beFujyjVCRjYdpPx3j6L-31" value="&lt;font style=&quot;font-size: 16px&quot;&gt;Output&lt;/font&gt;" style="rounded=1;absoluteArcSize=1;html=1;arcSize=10;whiteSpace=wrap;points=[];" parent="beFujyjVCRjYdpPx3j6L-1" vertex="1">
          <mxGeometry x="439" y="395" width="94" height="69" as="geometry" />
        </mxCell>
        <mxCell id="beFujyjVCRjYdpPx3j6L-32" value="" style="shape=flexArrow;endArrow=classic;html=1;rounded=0;shadow=0;sketch=0;fontFamily=Helvetica;fontSize=16;strokeColor=#666666;fillColor=#f5f5f5;entryX=0.522;entryY=1;entryDx=0;entryDy=0;entryPerimeter=0;" parent="beFujyjVCRjYdpPx3j6L-1" source="beFujyjVCRjYdpPx3j6L-29" target="beFujyjVCRjYdpPx3j6L-21" edge="1">
          <mxGeometry width="50" height="50" relative="1" as="geometry">
            <mxPoint x="350" y="220" as="sourcePoint" />
            <mxPoint x="400" y="170" as="targetPoint" />
          </mxGeometry>
        </mxCell>
        <mxCell id="beFujyjVCRjYdpPx3j6L-33" value="" style="shape=flexArrow;endArrow=classic;html=1;rounded=0;shadow=0;sketch=0;fontFamily=Helvetica;fontSize=16;strokeColor=default;fillColor=default;gradientColor=none;exitX=1;exitY=0.536;exitDx=0;exitDy=0;exitPerimeter=0;" parent="beFujyjVCRjYdpPx3j6L-1" source="beFujyjVCRjYdpPx3j6L-31" edge="1">
          <mxGeometry width="50" height="50" relative="1" as="geometry">
            <mxPoint x="533" y="440" as="sourcePoint" />
            <mxPoint x="630" y="432" as="targetPoint" />
          </mxGeometry>
        </mxCell>
        <mxCell id="beFujyjVCRjYdpPx3j6L-34" value="" style="shape=flexArrow;endArrow=classic;html=1;rounded=0;shadow=0;sketch=0;fontFamily=Helvetica;fontSize=16;strokeColor=#666666;fillColor=#f5f5f5;entryX=1.004;entryY=0.183;entryDx=0;entryDy=0;entryPerimeter=0;width=12.666666666666666;endSize=3;exitX=0.004;exitY=0.419;exitDx=0;exitDy=0;exitPerimeter=0;" parent="beFujyjVCRjYdpPx3j6L-1" source="beFujyjVCRjYdpPx3j6L-29" target="beFujyjVCRjYdpPx3j6L-28" edge="1">
          <mxGeometry width="50" height="50" relative="1" as="geometry">
            <mxPoint x="440" y="334" as="sourcePoint" />
            <mxPoint x="360" y="260" as="targetPoint" />
          </mxGeometry>
        </mxCell>
        <mxCell id="beFujyjVCRjYdpPx3j6L-35" value="" style="shape=flexArrow;endArrow=classic;html=1;rounded=0;shadow=0;sketch=0;fontFamily=Helvetica;fontSize=16;strokeColor=#666666;fillColor=#f5f5f5;width=11.538461538461538;endSize=2.567307692307692;exitX=0.479;exitY=0.993;exitDx=0;exitDy=0;exitPerimeter=0;entryX=0.479;entryY=0.004;entryDx=0;entryDy=0;entryPerimeter=0;" parent="beFujyjVCRjYdpPx3j6L-1" source="beFujyjVCRjYdpPx3j6L-29" target="beFujyjVCRjYdpPx3j6L-31" edge="1">
          <mxGeometry width="50" height="50" relative="1" as="geometry">
            <mxPoint x="483" y="375" as="sourcePoint" />
            <mxPoint x="533" y="325" as="targetPoint" />
          </mxGeometry>
        </mxCell>
        <mxCell id="beFujyjVCRjYdpPx3j6L-36" value="" style="shape=flexArrow;endArrow=classic;html=1;rounded=0;shadow=0;sketch=0;fontFamily=Helvetica;fontSize=16;strokeColor=#666666;fillColor=#f5f5f5;entryX=1.004;entryY=0.183;entryDx=0;entryDy=0;entryPerimeter=0;width=12.666666666666666;endSize=3;exitX=0.004;exitY=0.419;exitDx=0;exitDy=0;exitPerimeter=0;" parent="beFujyjVCRjYdpPx3j6L-1" edge="1">
          <mxGeometry width="50" height="50" relative="1" as="geometry">
            <mxPoint x="410.9960000000002" y="429.0799999999999" as="sourcePoint" />
            <mxPoint x="438.99599999999975" y="429.1299999999999" as="targetPoint" />
          </mxGeometry>
        </mxCell>
        <mxCell id="beFujyjVCRjYdpPx3j6L-37" value="" style="shape=flexArrow;endArrow=classic;html=1;rounded=0;shadow=0;sketch=0;fontFamily=Helvetica;fontSize=16;strokeColor=#666666;fillColor=#f5f5f5;entryX=0.522;entryY=1;entryDx=0;entryDy=0;entryPerimeter=0;" parent="beFujyjVCRjYdpPx3j6L-1" edge="1">
          <mxGeometry width="50" height="50" relative="1" as="geometry">
            <mxPoint x="361.6639999999999" y="260" as="sourcePoint" />
            <mxPoint x="361.08799999999985" y="305" as="targetPoint" />
          </mxGeometry>
        </mxCell>
        <mxCell id="beFujyjVCRjYdpPx3j6L-38" value="" style="shape=flexArrow;endArrow=classic;startArrow=classic;html=1;rounded=0;shadow=0;sketch=0;fontFamily=Helvetica;fontSize=14;fillColor=default;" parent="1" edge="1">
          <mxGeometry width="100" height="100" relative="1" as="geometry">
            <mxPoint x="150" y="512.5" as="sourcePoint" />
            <mxPoint x="290.46000000000004" y="512.5" as="targetPoint" />
          </mxGeometry>
        </mxCell>
        <mxCell id="beFujyjVCRjYdpPx3j6L-39" value="&lt;font style=&quot;font-size: 16px&quot;&gt;Channel Access&lt;/font&gt;" style="text;html=1;strokeColor=none;fillColor=none;align=center;verticalAlign=middle;whiteSpace=wrap;rounded=0;fontFamily=Helvetica;fontSize=14;" parent="1" vertex="1">
          <mxGeometry x="170" y="468" width="58" height="30" as="geometry" />
        </mxCell>
        <mxCell id="beFujyjVCRjYdpPx3j6L-40" value="Pulse" style="text;html=1;strokeColor=none;fillColor=none;align=center;verticalAlign=middle;whiteSpace=wrap;rounded=0;fontFamily=Helvetica;fontSize=16;" parent="1" vertex="1">
          <mxGeometry x="780" y="488" width="75" height="30" as="geometry" />
        </mxCell>
        <mxCell id="beFujyjVCRjYdpPx3j6L-41" value="DBus" style="text;html=1;strokeColor=none;fillColor=none;align=center;verticalAlign=middle;whiteSpace=wrap;rounded=0;fontFamily=Helvetica;fontSize=16;" parent="1" vertex="1">
          <mxGeometry x="780" y="518" width="75" height="30" as="geometry" />
        </mxCell>
        <mxCell id="beFujyjVCRjYdpPx3j6L-42" value="" style="shape=flexArrow;endArrow=classic;html=1;rounded=0;shadow=0;sketch=0;fontFamily=Helvetica;fontSize=16;strokeColor=default;fillColor=default;gradientColor=none;entryX=1;entryY=0.5;entryDx=0;entryDy=0;entryPerimeter=0;" parent="1" target="beFujyjVCRjYdpPx3j6L-29" edge="1">
          <mxGeometry width="50" height="50" relative="1" as="geometry">
            <mxPoint x="860" y="428" as="sourcePoint" />
            <mxPoint x="860" y="408" as="targetPoint" />
          </mxGeometry>
        </mxCell>
        <mxCell id="beFujyjVCRjYdpPx3j6L-43" value="RX" style="text;html=1;strokeColor=none;fillColor=none;align=center;verticalAlign=middle;whiteSpace=wrap;rounded=0;fontFamily=Helvetica;fontSize=16;" parent="1" vertex="1">
          <mxGeometry x="787.5" y="398" width="60" height="30" as="geometry" />
        </mxCell>
        <mxCell id="beFujyjVCRjYdpPx3j6L-44" value="Program structure" style="swimlane;startSize=39;horizontal=1;childLayout=flowLayout;flowOrientation=north;resizable=0;interRankCellSpacing=50;containerType=tree;fontFamily=Verdana;fontSize=19;strokeWidth=1;" parent="1" vertex="1">
          <mxGeometry x="940" y="147" width="287" height="402" as="geometry" />
        </mxCell>
        <mxCell id="beFujyjVCRjYdpPx3j6L-45" value="int *addr" style="whiteSpace=wrap;html=1;fontFamily=Verdana;fontSize=19;strokeWidth=1;" parent="beFujyjVCRjYdpPx3j6L-44" vertex="1">
          <mxGeometry x="91.33333333333333" y="149" width="100" height="40" as="geometry" />
        </mxCell>
        <mxCell id="beFujyjVCRjYdpPx3j6L-46" value="READ_32" style="whiteSpace=wrap;html=1;fontFamily=Verdana;fontSize=19;strokeWidth=1;" parent="beFujyjVCRjYdpPx3j6L-44" vertex="1">
          <mxGeometry x="22" y="239" width="100" height="40" as="geometry" />
        </mxCell>
        <mxCell id="beFujyjVCRjYdpPx3j6L-47" value="" style="html=1;curved=1;rounded=0;shadow=0;sketch=0;fontFamily=Verdana;fontSize=19;strokeColor=default;fillColor=default;gradientColor=none;noEdgeStyle=1;orthogonal=1;" parent="beFujyjVCRjYdpPx3j6L-44" source="beFujyjVCRjYdpPx3j6L-45" target="beFujyjVCRjYdpPx3j6L-46" edge="1">
          <mxGeometry relative="1" as="geometry">
            <Array as="points">
              <mxPoint x="118.83333333333333" y="201" />
              <mxPoint x="72" y="227" />
            </Array>
          </mxGeometry>
        </mxCell>
        <mxCell id="beFujyjVCRjYdpPx3j6L-48" value="WRITE_32" style="whiteSpace=wrap;html=1;fontFamily=Verdana;fontSize=19;strokeWidth=1;" parent="beFujyjVCRjYdpPx3j6L-44" vertex="1">
          <mxGeometry x="152" y="239" width="113" height="40" as="geometry" />
        </mxCell>
        <mxCell id="beFujyjVCRjYdpPx3j6L-49" value="" style="html=1;curved=1;rounded=0;shadow=0;sketch=0;fontFamily=Verdana;fontSize=19;strokeColor=default;fillColor=default;gradientColor=none;noEdgeStyle=1;orthogonal=1;" parent="beFujyjVCRjYdpPx3j6L-44" source="beFujyjVCRjYdpPx3j6L-45" target="beFujyjVCRjYdpPx3j6L-48" edge="1">
          <mxGeometry relative="1" as="geometry">
            <Array as="points">
              <mxPoint x="163.83333333333331" y="201" />
              <mxPoint x="208.5" y="227" />
            </Array>
          </mxGeometry>
        </mxCell>
        <mxCell id="beFujyjVCRjYdpPx3j6L-50" value="configure" style="whiteSpace=wrap;html=1;fontFamily=Verdana;fontSize=19;strokeWidth=1;" parent="beFujyjVCRjYdpPx3j6L-44" vertex="1">
          <mxGeometry x="20" y="335.5" width="100" height="40" as="geometry" />
        </mxCell>
        <mxCell id="beFujyjVCRjYdpPx3j6L-51" value="" style="html=1;curved=1;rounded=0;shadow=0;sketch=0;fontFamily=Verdana;fontSize=19;strokeColor=default;fillColor=default;gradientColor=none;noEdgeStyle=1;orthogonal=1;exitX=0.5;exitY=1;exitDx=0;exitDy=0;" parent="beFujyjVCRjYdpPx3j6L-44" source="beFujyjVCRjYdpPx3j6L-46" target="beFujyjVCRjYdpPx3j6L-50" edge="1">
          <mxGeometry relative="1" as="geometry">
            <Array as="points">
              <mxPoint x="49.5" y="291" />
              <mxPoint x="47.5" y="317" />
            </Array>
          </mxGeometry>
        </mxCell>
        <mxCell id="beFujyjVCRjYdpPx3j6L-52" value="" style="html=1;curved=1;rounded=0;shadow=0;sketch=0;fontFamily=Verdana;fontSize=19;strokeColor=default;fillColor=default;gradientColor=none;noEdgeStyle=1;orthogonal=1;" parent="beFujyjVCRjYdpPx3j6L-44" source="beFujyjVCRjYdpPx3j6L-48" target="beFujyjVCRjYdpPx3j6L-50" edge="1">
          <mxGeometry relative="1" as="geometry">
            <Array as="points">
              <mxPoint x="182.75" y="291" />
              <mxPoint x="92.5" y="317" />
            </Array>
          </mxGeometry>
        </mxCell>
        <mxCell id="beFujyjVCRjYdpPx3j6L-53" style="edgeStyle=orthogonalEdgeStyle;rounded=0;sketch=0;orthogonalLoop=1;jettySize=auto;html=1;exitX=0.5;exitY=1;exitDx=0;exitDy=0;entryX=0.5;entryY=0;entryDx=0;entryDy=0;shadow=0;fontFamily=Verdana;fontSize=19;strokeColor=default;fillColor=default;gradientColor=none;noEdgeStyle=1;orthogonal=1;" parent="beFujyjVCRjYdpPx3j6L-44" source="beFujyjVCRjYdpPx3j6L-54" target="beFujyjVCRjYdpPx3j6L-45" edge="1">
          <mxGeometry relative="1" as="geometry">
            <Array as="points">
              <mxPoint x="141.33333333333334" y="111" />
              <mxPoint x="141.33333333333331" y="137" />
            </Array>
          </mxGeometry>
        </mxCell>
        <mxCell id="beFujyjVCRjYdpPx3j6L-54" value="open_evr" style="rounded=0;whiteSpace=wrap;html=1;fontFamily=Verdana;fontSize=19;strokeWidth=1;" parent="beFujyjVCRjYdpPx3j6L-44" vertex="1">
          <mxGeometry x="88.99833333333333" y="59" width="104.67" height="40" as="geometry" />
        </mxCell>
        <mxCell id="beFujyjVCRjYdpPx3j6L-55" value="device support" style="rounded=0;whiteSpace=wrap;html=1;fontFamily=Verdana;fontSize=19;strokeWidth=1;" parent="beFujyjVCRjYdpPx3j6L-44" vertex="1">
          <mxGeometry x="150" y="329" width="117" height="53" as="geometry" />
        </mxCell>
        <mxCell id="beFujyjVCRjYdpPx3j6L-56" value="" style="curved=1;endArrow=classic;html=1;rounded=0;shadow=0;sketch=0;fontFamily=Verdana;fontSize=19;strokeColor=default;fillColor=default;gradientColor=none;exitX=0.5;exitY=1;exitDx=0;exitDy=0;entryX=0.25;entryY=0;entryDx=0;entryDy=0;noEdgeStyle=1;orthogonal=1;" parent="beFujyjVCRjYdpPx3j6L-44" source="beFujyjVCRjYdpPx3j6L-46" target="beFujyjVCRjYdpPx3j6L-55" edge="1">
          <mxGeometry width="50" height="50" relative="1" as="geometry">
            <mxPoint x="313" y="980" as="sourcePoint" />
            <mxPoint x="363" y="930" as="targetPoint" />
            <Array as="points">
              <mxPoint x="94.5" y="291" />
              <mxPoint x="181.75" y="317" />
            </Array>
          </mxGeometry>
        </mxCell>
        <mxCell id="beFujyjVCRjYdpPx3j6L-57" value="" style="curved=1;endArrow=classic;html=1;rounded=0;shadow=0;sketch=0;fontFamily=Verdana;fontSize=19;strokeColor=default;fillColor=default;gradientColor=none;exitX=0.5;exitY=1;exitDx=0;exitDy=0;entryX=0.75;entryY=0;entryDx=0;entryDy=0;noEdgeStyle=1;orthogonal=1;" parent="beFujyjVCRjYdpPx3j6L-44" source="beFujyjVCRjYdpPx3j6L-48" target="beFujyjVCRjYdpPx3j6L-55" edge="1">
          <mxGeometry width="50" height="50" relative="1" as="geometry">
            <mxPoint x="634.5" y="915" as="sourcePoint" />
            <mxPoint x="684.5" y="865" as="targetPoint" />
            <Array as="points">
              <mxPoint x="234.25" y="291" />
              <mxPoint x="235.25" y="317" />
            </Array>
          </mxGeometry>
        </mxCell>
        <mxCell id="beFujyjVCRjYdpPx3j6L-58" style="edgeStyle=orthogonalEdgeStyle;rounded=0;sketch=0;orthogonalLoop=1;jettySize=auto;html=1;exitX=0;exitY=0.5;exitDx=0;exitDy=0;entryX=0;entryY=0.5;entryDx=0;entryDy=0;shadow=0;fontFamily=Verdana;fontSize=19;strokeColor=default;fillColor=default;gradientColor=none;" parent="1" source="beFujyjVCRjYdpPx3j6L-59" edge="1">
          <mxGeometry relative="1" as="geometry">
            <mxPoint x="290" y="800" as="targetPoint" />
          </mxGeometry>
        </mxCell>
        <mxCell id="beFujyjVCRjYdpPx3j6L-59" value="&lt;div&gt;&lt;br&gt;&lt;/div&gt;&lt;div&gt;&lt;br&gt;&lt;/div&gt;&lt;div&gt;&lt;br&gt;&lt;/div&gt;&lt;div&gt;&lt;br&gt;&lt;/div&gt;&lt;div style=&quot;font-size: 14px&quot;&gt;输入参考时钟&lt;br&gt;&lt;/div&gt;" style="rounded=0;whiteSpace=wrap;html=1;fontFamily=Verdana;fontSize=19;strokeWidth=1;gradientColor=none;" parent="1" vertex="1">
          <mxGeometry x="260" y="740" width="160" height="120" as="geometry" />
        </mxCell>
        <mxCell id="beFujyjVCRjYdpPx3j6L-60" value="" style="endArrow=classic;html=1;rounded=0;shadow=0;sketch=0;fontFamily=Verdana;fontSize=19;strokeColor=default;fillColor=default;gradientColor=none;entryX=0;entryY=0.25;entryDx=0;entryDy=0;" parent="1" target="beFujyjVCRjYdpPx3j6L-62" edge="1">
          <mxGeometry width="50" height="50" relative="1" as="geometry">
            <mxPoint x="160" y="780" as="sourcePoint" />
            <mxPoint x="260" y="780" as="targetPoint" />
          </mxGeometry>
        </mxCell>
        <mxCell id="beFujyjVCRjYdpPx3j6L-61" value="" style="endArrow=classic;html=1;rounded=0;shadow=0;sketch=0;fontFamily=Verdana;fontSize=19;strokeColor=default;fillColor=default;gradientColor=none;" parent="1" edge="1">
          <mxGeometry width="50" height="50" relative="1" as="geometry">
            <mxPoint x="160" y="820" as="sourcePoint" />
            <mxPoint x="300" y="820" as="targetPoint" />
          </mxGeometry>
        </mxCell>
        <mxCell id="beFujyjVCRjYdpPx3j6L-62" value="" style="triangle;whiteSpace=wrap;html=1;fontFamily=Verdana;fontSize=19;strokeWidth=1;gradientColor=none;" parent="1" vertex="1">
          <mxGeometry x="310" y="760" width="60" height="80" as="geometry" />
        </mxCell>
        <mxCell id="beFujyjVCRjYdpPx3j6L-63" value="" style="ellipse;whiteSpace=wrap;html=1;aspect=fixed;fontFamily=Verdana;fontSize=19;strokeWidth=1;gradientColor=none;" parent="1" vertex="1">
          <mxGeometry x="300" y="815" width="10" height="10" as="geometry" />
        </mxCell>
        <mxCell id="beFujyjVCRjYdpPx3j6L-64" value="&lt;font style=&quot;font-size: 12px;&quot;&gt;MGTREFCLKN&lt;/font&gt;" style="text;html=1;strokeColor=none;fillColor=none;align=center;verticalAlign=middle;whiteSpace=wrap;rounded=0;fontFamily=Verdana;fontSize=12;" parent="1" vertex="1">
          <mxGeometry x="160" y="753" width="110" height="20" as="geometry" />
        </mxCell>
        <mxCell id="beFujyjVCRjYdpPx3j6L-65" value="&lt;font style=&quot;font-size: 12px&quot;&gt;MGTREFCLKP&lt;/font&gt;" style="text;html=1;strokeColor=none;fillColor=none;align=center;verticalAlign=middle;whiteSpace=wrap;rounded=0;fontFamily=Verdana;fontSize=12;" parent="1" vertex="1">
          <mxGeometry x="160" y="795" width="110" height="20" as="geometry" />
        </mxCell>
        <mxCell id="beFujyjVCRjYdpPx3j6L-66" value="IBUFDS_GTE2" style="text;html=1;strokeColor=none;fillColor=none;align=center;verticalAlign=middle;whiteSpace=wrap;rounded=0;fontFamily=Verdana;fontSize=12;" parent="1" vertex="1">
          <mxGeometry x="320" y="740" width="100" height="30" as="geometry" />
        </mxCell>
        <mxCell id="beFujyjVCRjYdpPx3j6L-67" value="" style="endArrow=classic;html=1;rounded=0;shadow=0;sketch=0;fontFamily=Verdana;fontSize=12;strokeColor=default;fillColor=default;gradientColor=none;exitX=1;exitY=0.5;exitDx=0;exitDy=0;entryX=0;entryY=0.5;entryDx=0;entryDy=0;" parent="1" source="beFujyjVCRjYdpPx3j6L-62" target="beFujyjVCRjYdpPx3j6L-68" edge="1">
          <mxGeometry width="50" height="50" relative="1" as="geometry">
            <mxPoint x="610" y="740" as="sourcePoint" />
            <mxPoint x="460" y="800" as="targetPoint" />
          </mxGeometry>
        </mxCell>
        <mxCell id="beFujyjVCRjYdpPx3j6L-68" value="&lt;div style=&quot;font-size: 14px;&quot;&gt;CPLL X20&lt;/div&gt;&lt;div style=&quot;font-size: 14px;&quot;&gt;&lt;br style=&quot;font-size: 14px;&quot;&gt;&lt;/div&gt;&lt;div style=&quot;font-size: 14px;&quot;&gt;&lt;br style=&quot;font-size: 14px;&quot;&gt;&lt;/div&gt;&lt;div style=&quot;font-size: 14px;&quot;&gt;&lt;font style=&quot;font-size: 14px;&quot;&gt;将参考时钟倍频20倍&lt;/font&gt;&lt;br style=&quot;font-size: 14px;&quot;&gt;&lt;/div&gt;" style="rounded=0;whiteSpace=wrap;html=1;fontFamily=Verdana;fontSize=14;strokeWidth=1;gradientColor=none;" parent="1" vertex="1">
          <mxGeometry x="480" y="740" width="160" height="120" as="geometry" />
        </mxCell>
        <mxCell id="beFujyjVCRjYdpPx3j6L-69" value="125MHz" style="text;html=1;strokeColor=none;fillColor=none;align=center;verticalAlign=middle;whiteSpace=wrap;rounded=0;fontFamily=Verdana;fontSize=12;" parent="1" vertex="1">
          <mxGeometry x="420" y="770" width="60" height="30" as="geometry" />
        </mxCell>
        <mxCell id="beFujyjVCRjYdpPx3j6L-70" value="&lt;div style=&quot;font-size: 14px;&quot;&gt;CDR&lt;/div&gt;&lt;div style=&quot;font-size: 14px;&quot;&gt;&lt;br style=&quot;font-size: 14px;&quot;&gt;&lt;/div&gt;&lt;div style=&quot;font-size: 14px;&quot;&gt;&lt;br style=&quot;font-size: 14px;&quot;&gt;&lt;/div&gt;&lt;div style=&quot;font-size: 14px;&quot;&gt;&lt;font style=&quot;font-size: 14px;&quot;&gt;从RXN/P中恢复出时钟&lt;/font&gt;&lt;br style=&quot;font-size: 14px;&quot;&gt;&lt;/div&gt;" style="rounded=0;whiteSpace=wrap;html=1;fontFamily=Verdana;fontSize=14;strokeWidth=1;gradientColor=none;" parent="1" vertex="1">
          <mxGeometry x="700" y="740" width="160" height="120" as="geometry" />
        </mxCell>
        <mxCell id="beFujyjVCRjYdpPx3j6L-71" value="" style="endArrow=classic;html=1;rounded=0;shadow=0;sketch=0;fontFamily=Verdana;fontSize=12;strokeColor=default;fillColor=default;gradientColor=none;entryX=0.25;entryY=0;entryDx=0;entryDy=0;" parent="1" edge="1">
          <mxGeometry relative="1" as="geometry">
            <mxPoint x="759.4099999999999" y="660" as="sourcePoint" />
            <mxPoint x="759.4099999999999" y="740" as="targetPoint" />
          </mxGeometry>
        </mxCell>
        <mxCell id="beFujyjVCRjYdpPx3j6L-72" value="RXN" style="edgeLabel;resizable=0;html=1;align=center;verticalAlign=middle;fontFamily=Verdana;fontSize=12;strokeWidth=1;gradientColor=none;" parent="beFujyjVCRjYdpPx3j6L-71" connectable="0" vertex="1">
          <mxGeometry relative="1" as="geometry" />
        </mxCell>
        <mxCell id="beFujyjVCRjYdpPx3j6L-73" value="" style="endArrow=classic;html=1;rounded=0;shadow=0;sketch=0;fontFamily=Verdana;fontSize=12;strokeColor=default;fillColor=default;gradientColor=none;entryX=0.25;entryY=0;entryDx=0;entryDy=0;" parent="1" edge="1">
          <mxGeometry relative="1" as="geometry">
            <mxPoint x="799.4099999999999" y="660" as="sourcePoint" />
            <mxPoint x="799.4099999999999" y="740" as="targetPoint" />
          </mxGeometry>
        </mxCell>
        <mxCell id="beFujyjVCRjYdpPx3j6L-74" value="RXP" style="edgeLabel;resizable=0;html=1;align=center;verticalAlign=middle;fontFamily=Verdana;fontSize=12;strokeWidth=1;gradientColor=none;" parent="beFujyjVCRjYdpPx3j6L-73" connectable="0" vertex="1">
          <mxGeometry relative="1" as="geometry" />
        </mxCell>
        <mxCell id="beFujyjVCRjYdpPx3j6L-75" value="" style="endArrow=classic;html=1;rounded=0;shadow=0;sketch=0;fontFamily=Verdana;fontSize=12;strokeColor=default;fillColor=default;gradientColor=none;exitX=1;exitY=0.5;exitDx=0;exitDy=0;entryX=0;entryY=0.5;entryDx=0;entryDy=0;" parent="1" source="beFujyjVCRjYdpPx3j6L-68" target="beFujyjVCRjYdpPx3j6L-70" edge="1">
          <mxGeometry width="50" height="50" relative="1" as="geometry">
            <mxPoint x="690" y="860" as="sourcePoint" />
            <mxPoint x="740" y="810" as="targetPoint" />
          </mxGeometry>
        </mxCell>
        <mxCell id="beFujyjVCRjYdpPx3j6L-76" value="2.5GHz" style="text;html=1;strokeColor=none;fillColor=none;align=center;verticalAlign=middle;whiteSpace=wrap;rounded=0;fontFamily=Verdana;fontSize=12;" parent="1" vertex="1">
          <mxGeometry x="640" y="770" width="60" height="30" as="geometry" />
        </mxCell>
        <mxCell id="beFujyjVCRjYdpPx3j6L-77" value="&lt;div&gt;Divider&lt;/div&gt;&lt;div&gt;&lt;br&gt;&lt;/div&gt;&lt;div&gt;&lt;br&gt;&lt;/div&gt;&lt;div&gt;将恢复时钟20倍分频&lt;/div&gt;" style="rounded=0;whiteSpace=wrap;html=1;fontFamily=Verdana;fontSize=14;strokeWidth=1;gradientColor=none;" parent="1" vertex="1">
          <mxGeometry x="920" y="740" width="160" height="120" as="geometry" />
        </mxCell>
        <mxCell id="beFujyjVCRjYdpPx3j6L-78" value="" style="endArrow=classic;html=1;rounded=0;shadow=0;sketch=0;fontFamily=Verdana;fontSize=14;strokeColor=default;fillColor=default;gradientColor=none;exitX=1;exitY=0.5;exitDx=0;exitDy=0;entryX=0;entryY=0.5;entryDx=0;entryDy=0;" parent="1" source="beFujyjVCRjYdpPx3j6L-70" target="beFujyjVCRjYdpPx3j6L-77" edge="1">
          <mxGeometry width="50" height="50" relative="1" as="geometry">
            <mxPoint x="710" y="630" as="sourcePoint" />
            <mxPoint x="760" y="580" as="targetPoint" />
          </mxGeometry>
        </mxCell>
        <mxCell id="beFujyjVCRjYdpPx3j6L-79" value="2.5GHz" style="text;html=1;strokeColor=none;fillColor=none;align=center;verticalAlign=middle;whiteSpace=wrap;rounded=0;fontFamily=Verdana;fontSize=12;" parent="1" vertex="1">
          <mxGeometry x="860" y="770" width="60" height="30" as="geometry" />
        </mxCell>
        <mxCell id="beFujyjVCRjYdpPx3j6L-80" value="" style="endArrow=classic;html=1;rounded=0;shadow=0;sketch=0;fontFamily=Verdana;fontSize=14;strokeColor=default;fillColor=default;gradientColor=none;" parent="1" edge="1">
          <mxGeometry width="50" height="50" relative="1" as="geometry">
            <mxPoint x="1080" y="800" as="sourcePoint" />
            <mxPoint x="1160" y="800" as="targetPoint" />
          </mxGeometry>
        </mxCell>
        <mxCell id="beFujyjVCRjYdpPx3j6L-81" value="恢复时钟" style="text;html=1;strokeColor=none;fillColor=none;align=center;verticalAlign=middle;whiteSpace=wrap;rounded=0;fontFamily=Verdana;fontSize=14;" parent="1" vertex="1">
          <mxGeometry x="1090" y="770" width="60" height="30" as="geometry" />
        </mxCell>
        <mxCell id="beFujyjVCRjYdpPx3j6L-82" value="" style="rounded=0;whiteSpace=wrap;html=1;" parent="1" vertex="1">
          <mxGeometry x="1490" y="695" width="320" height="118" as="geometry" />
        </mxCell>
        <mxCell id="beFujyjVCRjYdpPx3j6L-83" value="设备树" style="rounded=0;whiteSpace=wrap;html=1;" parent="1" vertex="1">
          <mxGeometry x="1510" y="735" width="50" height="40" as="geometry" />
        </mxCell>
        <mxCell id="beFujyjVCRjYdpPx3j6L-84" value="内核态" style="text;html=1;strokeColor=none;fillColor=none;align=center;verticalAlign=middle;whiteSpace=wrap;rounded=0;" parent="1" vertex="1">
          <mxGeometry x="1490" y="783" width="50" height="30" as="geometry" />
        </mxCell>
        <mxCell id="beFujyjVCRjYdpPx3j6L-85" value="uio_pdev_genirq.c" style="rounded=0;whiteSpace=wrap;html=1;" parent="1" vertex="1">
          <mxGeometry x="1590" y="735" width="110" height="40" as="geometry" />
        </mxCell>
        <mxCell id="beFujyjVCRjYdpPx3j6L-86" value="&lt;div&gt;UIO驱动&lt;br&gt;&lt;/div&gt;&lt;div&gt;uio.c&lt;/div&gt;" style="rounded=0;whiteSpace=wrap;html=1;" parent="1" vertex="1">
          <mxGeometry x="1730" y="735" width="60" height="40" as="geometry" />
        </mxCell>
        <mxCell id="beFujyjVCRjYdpPx3j6L-87" value="" style="endArrow=classic;startArrow=classic;html=1;rounded=0;exitX=1;exitY=0.5;exitDx=0;exitDy=0;entryX=0;entryY=0.5;entryDx=0;entryDy=0;" parent="1" source="beFujyjVCRjYdpPx3j6L-83" target="beFujyjVCRjYdpPx3j6L-85" edge="1">
          <mxGeometry width="50" height="50" relative="1" as="geometry">
            <mxPoint x="1620" y="785" as="sourcePoint" />
            <mxPoint x="1670" y="735" as="targetPoint" />
          </mxGeometry>
        </mxCell>
        <mxCell id="beFujyjVCRjYdpPx3j6L-88" value="" style="endArrow=classic;startArrow=classic;html=1;rounded=0;exitX=1;exitY=0.5;exitDx=0;exitDy=0;entryX=0;entryY=0.5;entryDx=0;entryDy=0;" parent="1" source="beFujyjVCRjYdpPx3j6L-85" target="beFujyjVCRjYdpPx3j6L-86" edge="1">
          <mxGeometry width="50" height="50" relative="1" as="geometry">
            <mxPoint x="1620" y="785" as="sourcePoint" />
            <mxPoint x="1670" y="735" as="targetPoint" />
          </mxGeometry>
        </mxCell>
        <mxCell id="beFujyjVCRjYdpPx3j6L-89" value="硬件设备" style="rounded=0;whiteSpace=wrap;html=1;" parent="1" vertex="1">
          <mxGeometry x="1490" y="835" width="320" height="40" as="geometry" />
        </mxCell>
        <mxCell id="beFujyjVCRjYdpPx3j6L-90" value="" style="endArrow=classic;html=1;rounded=0;entryX=0.537;entryY=1.026;entryDx=0;entryDy=0;entryPerimeter=0;" parent="1" target="beFujyjVCRjYdpPx3j6L-85" edge="1">
          <mxGeometry width="50" height="50" relative="1" as="geometry">
            <mxPoint x="1649" y="835" as="sourcePoint" />
            <mxPoint x="1650" y="775" as="targetPoint" />
          </mxGeometry>
        </mxCell>
        <mxCell id="beFujyjVCRjYdpPx3j6L-91" value="中断" style="text;html=1;strokeColor=none;fillColor=none;align=center;verticalAlign=middle;whiteSpace=wrap;rounded=0;" parent="1" vertex="1">
          <mxGeometry x="1650" y="813" width="40" height="20" as="geometry" />
        </mxCell>
        <mxCell id="beFujyjVCRjYdpPx3j6L-92" value="&lt;div&gt;FPGA 寄存器&lt;/div&gt;（物理地址）" style="rounded=0;whiteSpace=wrap;html=1;" parent="1" vertex="1">
          <mxGeometry x="1530" y="268" width="80" height="120" as="geometry" />
        </mxCell>
        <mxCell id="beFujyjVCRjYdpPx3j6L-93" value="内存虚拟地址" style="rounded=0;whiteSpace=wrap;html=1;" parent="1" vertex="1">
          <mxGeometry x="1810" y="268" width="80" height="120" as="geometry" />
        </mxCell>
        <mxCell id="beFujyjVCRjYdpPx3j6L-94" value="&lt;div&gt;UIO&lt;/div&gt;&lt;div&gt;设备&lt;/div&gt;" style="rounded=0;whiteSpace=wrap;html=1;" parent="1" vertex="1">
          <mxGeometry x="1650" y="268" width="40" height="120" as="geometry" />
        </mxCell>
        <mxCell id="beFujyjVCRjYdpPx3j6L-95" value="mmap" style="rounded=0;whiteSpace=wrap;html=1;" parent="1" vertex="1">
          <mxGeometry x="1730" y="268" width="40" height="120" as="geometry" />
        </mxCell>
        <mxCell id="beFujyjVCRjYdpPx3j6L-96" value="用户代码" style="rounded=0;whiteSpace=wrap;html=1;" parent="1" vertex="1">
          <mxGeometry x="1790" y="428" width="120" height="40" as="geometry" />
        </mxCell>
        <mxCell id="beFujyjVCRjYdpPx3j6L-97" value="" style="curved=1;endArrow=classic;html=1;rounded=0;entryX=1.029;entryY=0.917;entryDx=0;entryDy=0;entryPerimeter=0;dashed=1;exitX=0;exitY=0.5;exitDx=0;exitDy=0;" parent="1" source="beFujyjVCRjYdpPx3j6L-96" target="beFujyjVCRjYdpPx3j6L-92" edge="1">
          <mxGeometry width="50" height="50" relative="1" as="geometry">
            <mxPoint x="1670" y="428" as="sourcePoint" />
            <mxPoint x="1720" y="378" as="targetPoint" />
            <Array as="points">
              <mxPoint x="1750" y="448" />
              <mxPoint x="1700" y="438" />
              <mxPoint x="1640" y="408" />
            </Array>
          </mxGeometry>
        </mxCell>
        <mxCell id="beFujyjVCRjYdpPx3j6L-98" value="" style="endArrow=classic;startArrow=classic;html=1;rounded=0;exitX=1;exitY=0.5;exitDx=0;exitDy=0;entryX=0;entryY=0.5;entryDx=0;entryDy=0;" parent="1" source="beFujyjVCRjYdpPx3j6L-92" target="beFujyjVCRjYdpPx3j6L-94" edge="1">
          <mxGeometry width="50" height="50" relative="1" as="geometry">
            <mxPoint x="1520" y="378" as="sourcePoint" />
            <mxPoint x="1570" y="328" as="targetPoint" />
          </mxGeometry>
        </mxCell>
        <mxCell id="beFujyjVCRjYdpPx3j6L-99" value="" style="endArrow=classic;startArrow=classic;html=1;rounded=0;exitX=1;exitY=0.5;exitDx=0;exitDy=0;entryX=0;entryY=0.5;entryDx=0;entryDy=0;" parent="1" source="beFujyjVCRjYdpPx3j6L-94" target="beFujyjVCRjYdpPx3j6L-95" edge="1">
          <mxGeometry width="50" height="50" relative="1" as="geometry">
            <mxPoint x="1700" y="408" as="sourcePoint" />
            <mxPoint x="1750" y="358" as="targetPoint" />
          </mxGeometry>
        </mxCell>
        <mxCell id="beFujyjVCRjYdpPx3j6L-100" value="" style="endArrow=classic;startArrow=classic;html=1;rounded=0;entryX=0.5;entryY=1;entryDx=0;entryDy=0;exitX=0.5;exitY=0;exitDx=0;exitDy=0;" parent="1" source="beFujyjVCRjYdpPx3j6L-96" target="beFujyjVCRjYdpPx3j6L-93" edge="1">
          <mxGeometry width="50" height="50" relative="1" as="geometry">
            <mxPoint x="1620" y="388" as="sourcePoint" />
            <mxPoint x="1670" y="338" as="targetPoint" />
          </mxGeometry>
        </mxCell>
        <mxCell id="beFujyjVCRjYdpPx3j6L-101" value="直接访问" style="text;html=1;strokeColor=none;fillColor=none;align=center;verticalAlign=middle;whiteSpace=wrap;rounded=0;" parent="1" vertex="1">
          <mxGeometry x="1850" y="392" width="60" height="30" as="geometry" />
        </mxCell>
        <mxCell id="beFujyjVCRjYdpPx3j6L-102" value="间接访问" style="text;html=1;strokeColor=none;fillColor=none;align=center;verticalAlign=middle;whiteSpace=wrap;rounded=0;" parent="1" vertex="1">
          <mxGeometry x="1650" y="433" width="60" height="30" as="geometry" />
        </mxCell>
        <mxCell id="beFujyjVCRjYdpPx3j6L-103" value="" style="endArrow=classic;startArrow=classic;html=1;rounded=0;entryX=0;entryY=0.5;entryDx=0;entryDy=0;exitX=1;exitY=0.5;exitDx=0;exitDy=0;" parent="1" source="beFujyjVCRjYdpPx3j6L-95" target="beFujyjVCRjYdpPx3j6L-93" edge="1">
          <mxGeometry width="50" height="50" relative="1" as="geometry">
            <mxPoint x="1620" y="388" as="sourcePoint" />
            <mxPoint x="1670" y="338" as="targetPoint" />
          </mxGeometry>
        </mxCell>
        <mxCell id="beFujyjVCRjYdpPx3j6L-104" value="" style="endArrow=classic;startArrow=classic;html=1;rounded=0;entryX=0.5;entryY=0;entryDx=0;entryDy=0;exitX=0.5;exitY=0;exitDx=0;exitDy=0;dashed=1;dashPattern=1 4;" parent="1" source="beFujyjVCRjYdpPx3j6L-92" target="beFujyjVCRjYdpPx3j6L-95" edge="1">
          <mxGeometry width="50" height="50" relative="1" as="geometry">
            <mxPoint x="1570" y="188" as="sourcePoint" />
            <mxPoint x="1750" y="188" as="targetPoint" />
            <Array as="points">
              <mxPoint x="1570" y="228" />
              <mxPoint x="1750" y="228" />
            </Array>
          </mxGeometry>
        </mxCell>
        <mxCell id="beFujyjVCRjYdpPx3j6L-105" value="使用 mem 设备" style="text;html=1;strokeColor=none;fillColor=none;align=center;verticalAlign=middle;whiteSpace=wrap;rounded=0;" parent="1" vertex="1">
          <mxGeometry x="1620" y="228" width="90" height="30" as="geometry" />
        </mxCell>
      </root>
    </mxGraphModel>
  </diagram>
</mxfile>
